<svg width="120" height="120" viewBox="0 0 120 120" fill="none" xmlns="http://www.w3.org/2000/svg">
<path fill-rule="evenodd" clip-rule="evenodd" d="M83.0002 8.03311C76.7132 8.77711 68.6242 12.0731 65.1652 15.2991C61.5052 18.7131 59.0322 24.4031 58.3432 30.9941L57.7142 37.0121L54.3012 33.4981C52.4232 31.5651 49.1222 29.0831 46.9652 27.9821C41.5492 25.2191 30.6862 22.8401 25.1292 23.2001L20.5002 23.5001L20.8272 27.5001C21.0072 29.7001 22.1922 33.8041 23.4622 36.6201C28.5962 48.0081 38.4812 54.8721 51.0392 55.7711C56.9882 56.1961 58.0002 56.5401 58.0002 58.1341C58.0002 59.8921 56.8632 60.0001 38.4272 60.0001C20.3242 60.0001 18.8792 60.1311 19.1902 61.7501C19.4942 63.3331 21.3632 63.5261 38.7632 63.7721C57.1722 64.0311 58.0002 64.1281 58.0002 66.0221C58.0002 67.3491 57.3262 68.0001 55.9502 68.0001C53.2082 68.0001 48.1462 70.6291 44.6582 73.8641C35.5912 82.2751 35.5912 97.5911 44.6582 106.197C52.8362 113.959 67.0992 113.959 75.3762 106.197C83.8422 98.2591 84.2352 83.1281 76.1972 74.6581C73.0432 71.3361 66.9532 68.0001 64.0402 68.0001C62.6742 68.0001 62.0002 67.3461 62.0002 66.0221C62.0002 64.1281 62.8282 64.0311 81.2372 63.7721C98.6372 63.5261 100.506 63.3331 100.81 61.7501C101.121 60.1311 99.6762 60.0001 81.5732 60.0001H62.0002V47.6401V35.2801L67.4782 34.7141C79.4072 33.4831 89.3262 24.4391 91.5092 12.8021C92.3812 8.15511 90.5652 7.13811 83.0002 8.03311ZM88.0002 12.0321C88.0002 14.4701 84.6542 20.7581 81.6992 23.8721C77.5862 28.2081 71.6232 30.9501 66.2502 30.9781C61.5842 31.0021 61.4802 30.8321 63.1532 25.8991C65.7232 18.3211 71.3422 14.0011 81.1322 12.0781C87.2762 10.8701 88.0002 10.8651 88.0002 12.0321ZM41.4742 29.7911C50.5002 33.3361 55.8862 39.5451 57.5282 48.2971L58.2232 52.0001H52.7892C44.9832 52.0001 38.6782 49.5201 33.6152 44.4571C29.0762 39.9181 25.0002 32.5431 25.0002 28.8681C25.0002 26.8381 25.3362 26.7501 30.8892 27.3311C34.1282 27.6691 38.8912 28.7761 41.4742 29.7911ZM65.4772 72.1151C73.8322 74.4351 79.9672 84.3181 78.4872 93.0751C77.7002 97.7371 73.0692 104.396 69.2352 106.378C61.5582 110.348 52.8412 109.077 46.8822 103.118C37.1142 93.3501 40.7102 77.0741 53.6552 72.4591C58.4012 70.7671 60.4092 70.7081 65.4772 72.1151ZM53.7122 83.7841C51.1212 86.4161 49.0002 89.2451 49.0002 90.0721C49.0002 92.0141 58.1042 101 60.0722 101C62.0142 101 71.0002 91.8961 71.0002 89.9281C71.0002 87.9861 61.8962 79.0001 59.9282 79.0001C59.1012 79.0001 56.3042 81.1531 53.7122 83.7841ZM63.4412 86.3741L66.8152 89.7491L63.3332 93.3331L59.8512 96.9181L56.3952 93.4621L52.9382 90.0051L56.2192 86.5711C58.0242 84.6831 59.6272 83.1071 59.7832 83.0691C59.9392 83.0311 61.5852 84.5181 63.4412 86.3741Z" fill="white"/>
</svg>
