<svg width="120" height="120" viewBox="0 0 120 120" fill="none" xmlns="http://www.w3.org/2000/svg">
<path fill-rule="evenodd" clip-rule="evenodd" d="M33.2422 7.64919C21.6885 10.1969 12.9556 18.0437 9.23564 29.2201C7.06207 35.7521 7.0884 41.8788 9.24876 48.4389C13.4872 61.3084 24.6163 69.8223 38.1641 70.5587C43.4136 70.8442 45.1953 70.3567 45.1953 68.6345C45.1953 67.0117 44.652 66.819 40.3344 66.9086C35.7144 67.0037 30.4438 65.7554 26.2981 63.5833C22.4956 61.5911 16.8088 55.9042 14.8166 52.1017C8.9783 40.9586 10.9531 27.9864 19.8402 19.0994C30.7039 8.23607 47.5977 7.94497 58.7103 18.4304C64.5294 23.92 67.0958 29.7986 67.618 38.8295C67.9222 44.0893 67.9574 44.2239 69.0753 44.3819C70.8299 44.6294 71.4453 43.3417 71.4453 39.4234C71.4453 32.1972 69.035 25.0065 64.6916 19.2751C57.6702 10.0098 44.5438 5.15732 33.2422 7.64919ZM31.2449 30.5144C27.058 34.7069 23.6328 38.4531 23.6328 38.8398C23.6328 39.7576 38.6619 54.767 39.5806 54.767C40.4985 54.767 55.5078 39.7379 55.5078 38.8192C55.5078 37.9014 40.4788 22.892 39.56 22.892C39.1728 22.892 35.4313 26.3219 31.2449 30.5144ZM45.432 33.2069L51.0449 38.8347L45.3078 44.5717L39.5703 50.3092L33.8328 44.5717L28.0958 38.8347L33.7086 33.2069C36.7953 30.1117 39.4335 27.5795 39.5703 27.5795C39.7072 27.5795 42.3453 30.1117 45.432 33.2069ZM74.4922 48.8992C61.5195 51.76 52.2224 61.1448 49.6152 74.0111C47.5452 84.2261 50.8574 95.0087 58.3742 102.526C62.0872 106.238 66.1363 108.726 71.211 110.412C74.4683 111.494 75.7306 111.658 80.8203 111.658C85.91 111.658 87.1724 111.494 90.4297 110.412C95.5316 108.717 99.6153 106.219 103.288 102.547C114.613 91.2212 115.736 73.4495 105.942 60.5251C98.9202 51.2598 85.7938 46.4073 74.4922 48.8992ZM87.5722 52.8803C92.8447 54.2289 96.4611 56.3176 100.55 60.3761C111.722 71.4639 111.722 88.638 100.55 99.8097C89.3788 110.981 72.2047 110.981 61.1169 99.8097C57.0585 95.7203 54.9697 92.1039 53.6211 86.8314C51.9299 80.2178 52.8078 73.0267 56.0666 66.8073C58.0606 63.0011 63.7452 57.3179 67.5556 55.3215C73.7741 52.0637 80.9544 51.1881 87.5722 52.8803ZM68.375 63.864C63.6458 65.9237 62.5288 72.2106 66.2338 75.9161C69.2746 78.9564 73.6161 78.9564 76.6569 75.9161C82.4745 70.0979 75.9294 60.5734 68.375 63.864ZM79.5285 78.7933C71.9891 86.3359 65.8203 92.8328 65.8203 93.2308C65.8203 94.1617 66.741 95.0795 67.6747 95.0795C68.6239 95.0795 95.8203 67.8775 95.8203 66.9283C95.8203 65.9973 94.8997 65.0795 93.966 65.0795C93.5647 65.0795 87.0678 71.2506 79.5285 78.7933ZM74.0445 68.1053C76.37 70.4303 74.7224 74.4545 71.4453 74.4545C70.5322 74.4545 69.5713 74.0294 68.8461 73.3037C68.1205 72.5786 67.6953 71.6176 67.6953 70.7045C67.6953 69.7914 68.1205 68.8304 68.8461 68.1053C69.5713 67.3797 70.5322 66.9545 71.4453 66.9545C72.3585 66.9545 73.3194 67.3797 74.0445 68.1053ZM87.125 82.614C82.3958 84.6737 81.2788 90.9606 84.9838 94.6661C88.0246 97.7064 92.3661 97.7064 95.4069 94.6661C101.225 88.8479 94.6794 79.3234 87.125 82.614ZM92.7945 86.8553C95.12 89.1803 93.4724 93.2045 90.1953 93.2045C89.2822 93.2045 88.3213 92.7794 87.5961 92.0537C86.8705 91.3286 86.4453 90.3676 86.4453 89.4545C86.4453 88.5414 86.8705 87.5805 87.5961 86.8553C88.3213 86.1297 89.2822 85.7045 90.1953 85.7045C91.1085 85.7045 92.0694 86.1297 92.7945 86.8553Z" fill="white"/>
</svg>
