<svg width="139" height="37" viewBox="0 0 139 37" fill="none" xmlns="http://www.w3.org/2000/svg">
<path d="M9.87435 30.5C21.0203 30.5 27.1166 21.2657 27.1166 13.2577C27.1166 12.9954 27.1166 12.7343 27.0989 12.4744C28.2849 11.6166 29.3087 10.5544 30.1223 9.33764C29.0164 9.82795 27.8431 10.1493 26.6417 10.2911C27.9068 9.53382 28.8536 8.34263 29.3059 6.93927C28.1164 7.6452 26.8149 8.14267 25.4578 8.41019C24.5442 7.43865 23.3358 6.79533 22.0196 6.57976C20.7035 6.3642 19.353 6.58842 18.1771 7.21772C17.0013 7.84702 16.0656 8.84631 15.5149 10.061C14.9642 11.2756 14.8291 12.6379 15.1307 13.9371C12.7214 13.8162 10.3645 13.1901 8.21284 12.0993C6.06122 11.0085 4.16302 9.47752 2.64144 7.60561C1.86651 8.93968 1.62916 10.5189 1.97773 12.0219C2.32629 13.5248 3.23456 14.8383 4.5176 15.6951C3.55317 15.6668 2.60975 15.4067 1.76716 14.9366V15.0134C1.76754 16.4125 2.25186 17.7684 3.13799 18.8511C4.02411 19.9339 5.25747 20.6767 6.62888 20.9538C5.73672 21.1971 4.80065 21.2327 3.89261 21.0577C4.28 22.2618 5.03394 23.3146 6.04902 24.0692C7.06411 24.8237 8.2896 25.2422 9.55418 25.2661C8.29774 26.2537 6.85891 26.9839 5.32 27.4149C3.7811 27.8459 2.17232 27.9693 0.585693 27.7779C3.357 29.5563 6.58152 30.4996 9.87435 30.4953" fill="#1DA1F2"/>
<path d="M61.9863 11.032C61.9863 10.36 61.8183 9.64 61.4823 9.184H46.6743C46.3623 9.64 46.1943 10.36 46.1943 11.032C46.1943 11.776 46.3863 12.448 46.6743 12.832H51.9303V27.664C52.5543 27.88 53.2503 28.024 54.0663 28.024C54.9063 28.024 55.5783 27.88 56.2263 27.664V12.832H61.4823C61.7943 12.448 61.9863 11.776 61.9863 11.032ZM79.8937 13.888C79.0777 13.888 78.5017 14.056 77.9497 14.248L76.0537 23.392L73.2697 14.176C72.7417 14.032 72.2377 13.936 71.7097 13.936C71.1817 13.936 70.6537 14.032 70.1497 14.176L67.6057 23.296L65.6377 14.272C65.0377 14.056 64.4377 13.888 63.3577 13.888C62.3257 13.888 61.9417 14.032 61.4617 14.272L65.2297 27.76C65.8537 27.928 66.4537 28.024 67.0537 28.024C67.6297 28.024 68.2297 27.928 68.8537 27.76L71.4217 19.312L74.0857 27.688C74.6617 27.856 75.2377 28 76.0297 28C76.8217 28 77.3977 27.856 77.9737 27.688L81.6697 14.248C81.2377 14.032 80.8777 13.888 79.8937 13.888ZM85.5768 12.496C86.3688 12.496 87.0648 12.352 87.6648 12.16V9.256C87.1128 9.064 86.5608 8.896 85.5288 8.896C84.4968 8.896 84.0648 9.016 83.5368 9.256V12.16C84.1128 12.352 84.7608 12.496 85.5768 12.496ZM85.5768 28C86.3688 28 87.0648 27.88 87.6648 27.664V14.272C87.1128 14.08 86.5608 13.888 85.5288 13.888C84.5208 13.888 84.0648 14.032 83.5368 14.272V27.664C84.1128 27.88 84.7608 28 85.5768 28ZM97.6269 24.808C96.8349 24.808 96.4989 24.688 96.2589 24.448C95.9709 24.208 95.8989 23.824 95.8989 22.648V16.984H98.8509C99.0189 16.48 99.1149 16.024 99.1149 15.52C99.1149 15.04 99.0189 14.536 98.8509 14.056H95.9469V11.104C95.3229 10.912 94.6509 10.744 93.9789 10.744C93.1629 10.744 92.5389 10.912 91.9629 11.104V14.08H90.1629C90.0189 14.536 89.8989 14.944 89.8989 15.472C89.8989 16.12 90.0189 16.528 90.1629 16.984H91.9149V22.432C91.9149 25.24 92.1309 26.176 93.0429 27.064C93.7629 27.76 94.8909 28 96.0669 28C97.4829 28 98.3229 27.856 98.8509 27.712C99.0189 27.16 99.1149 26.632 99.1149 26.08C99.1149 25.6 99.0189 25.072 98.8509 24.664C98.3949 24.76 98.1069 24.808 97.6269 24.808ZM108.349 24.808C107.557 24.808 107.221 24.688 106.981 24.448C106.693 24.208 106.621 23.824 106.621 22.648V16.984H109.573C109.741 16.48 109.837 16.024 109.837 15.52C109.837 15.04 109.741 14.536 109.573 14.056H106.669V11.104C106.045 10.912 105.373 10.744 104.701 10.744C103.885 10.744 103.261 10.912 102.685 11.104V14.08H100.885C100.741 14.536 100.621 14.944 100.621 15.472C100.621 16.12 100.741 16.528 100.885 16.984H102.637V22.432C102.637 25.24 102.853 26.176 103.765 27.064C104.485 27.76 105.613 28 106.789 28C108.205 28 109.045 27.856 109.573 27.712C109.741 27.16 109.837 26.632 109.837 26.08C109.837 25.6 109.741 25.072 109.573 24.664C109.117 24.76 108.829 24.808 108.349 24.808ZM124.774 20.656C124.774 18.736 124.342 16.96 122.974 15.52C121.846 14.32 120.19 13.624 118.174 13.624C116.374 13.624 114.766 14.272 113.614 15.304C112.006 16.744 111.286 18.808 111.286 21.112C111.286 23.8 112.294 25.648 113.83 26.824C115.054 27.784 116.686 28.288 118.222 28.288C119.854 28.288 121.078 27.904 121.942 27.4C123.31 26.56 124.102 25.408 124.414 24.136C123.886 23.968 123.286 23.848 122.59 23.848C121.99 23.848 121.342 23.968 120.862 24.136C120.67 24.496 120.382 24.784 119.974 24.976C119.59 25.168 119.11 25.288 118.51 25.288C117.622 25.288 116.83 25 116.23 24.52C115.654 24.04 115.126 23.2 115.03 21.976H124.654C124.702 21.616 124.774 21.112 124.774 20.656ZM118.246 16.768C119.23 16.768 119.974 17.08 120.502 17.68C120.91 18.112 121.15 18.688 121.198 19.552H115.078C115.246 18.592 115.654 17.992 116.038 17.584C116.638 16.984 117.478 16.768 118.246 16.768ZM136.719 13.744C136.287 13.648 135.951 13.576 135.471 13.576C133.431 13.576 131.991 14.824 131.319 16.576H131.295V14.2C130.767 14.008 130.239 13.864 129.495 13.864C128.511 13.864 128.079 14.008 127.575 14.2V27.664C128.199 27.88 128.871 28 129.615 28C130.479 28 131.175 27.856 131.703 27.664V20.92C131.703 18.256 133.431 17.248 135.231 17.248C135.687 17.248 136.143 17.296 136.719 17.416C136.959 16.912 137.079 16.264 137.079 15.472C137.079 14.896 136.983 14.224 136.719 13.744Z" fill="white"/>
</svg>
