<svg width="148" height="37" viewBox="0 0 148 37" fill="none" xmlns="http://www.w3.org/2000/svg">
<path d="M26.0267 9.05504C24.1332 8.18623 22.1028 7.54613 19.9798 7.17952C19.9411 7.17244 19.9025 7.19012 19.8826 7.22549C19.6214 7.68994 19.3322 8.29586 19.1296 8.77211C16.8462 8.43026 14.5745 8.43026 12.3379 8.77211C12.1353 8.28527 11.8356 7.68994 11.5733 7.22549C11.5533 7.1913 11.5147 7.17362 11.4761 7.17952C9.35424 7.54496 7.32377 8.18506 5.42911 9.05504C5.41271 9.06211 5.39865 9.07391 5.38932 9.08923C1.53793 14.8431 0.482879 20.4556 1.00045 25.9985C1.0028 26.0256 1.01802 26.0515 1.0391 26.068C3.58013 27.9341 6.04156 29.067 8.45727 29.8179C8.49594 29.8297 8.5369 29.8155 8.5615 29.7837C9.13294 29.0033 9.64233 28.1805 10.0791 27.3152C10.1049 27.2645 10.0802 27.2044 10.0276 27.1843C9.2196 26.8779 8.45024 26.5042 7.71018 26.0798C7.65164 26.0456 7.64696 25.9619 7.70081 25.9218C7.85654 25.8051 8.01232 25.6837 8.16103 25.5611C8.18793 25.5387 8.22543 25.534 8.25706 25.5481C13.119 27.7679 18.3825 27.7679 23.1871 25.5481C23.2187 25.5328 23.2562 25.5375 23.2843 25.5599C23.433 25.6825 23.5887 25.8051 23.7457 25.9218C23.7995 25.9619 23.796 26.0456 23.7375 26.0798C22.9974 26.5124 22.228 26.8779 21.4189 27.1832C21.3662 27.2032 21.3428 27.2645 21.3686 27.3152C21.8147 28.1793 22.3241 29.0021 22.885 29.7825C22.9084 29.8155 22.9505 29.8297 22.9892 29.8179C25.4166 29.067 27.878 27.9341 30.4191 26.068C30.4413 26.0515 30.4554 26.0267 30.4577 25.9996C31.0772 19.5915 29.4202 14.025 26.0653 9.0904C26.0571 9.07391 26.0431 9.06211 26.0267 9.05504ZM10.8051 22.6234C9.34136 22.6234 8.13526 21.2796 8.13526 19.6292C8.13526 17.9788 9.31797 16.635 10.8051 16.635C12.304 16.635 13.4984 17.9906 13.4749 19.6292C13.4749 21.2796 12.2922 22.6234 10.8051 22.6234ZM20.6765 22.6234C19.2128 22.6234 18.0067 21.2796 18.0067 19.6292C18.0067 17.9788 19.1893 16.635 20.6765 16.635C22.1754 16.635 23.3697 17.9906 23.3464 19.6292C23.3464 21.2796 22.1754 22.6234 20.6765 22.6234Z" fill="#5865F2"/>
<path d="M60.5057 10.504C58.9697 9.544 57.3617 9.184 54.2657 9.184H48.0017V28H54.2657C57.0977 28 58.5137 27.712 59.9537 26.992C62.5697 25.672 64.3457 23.08 64.3457 18.592C64.3457 14.44 62.7857 11.896 60.5057 10.504ZM58.5377 23.224C57.6497 24.088 56.3777 24.4 54.8177 24.424H52.2257V12.736H54.8177C56.2817 12.736 57.5777 13.048 58.4897 13.888C59.3777 14.752 60.0017 16.144 60.0017 18.568C60.0017 20.896 59.4497 22.336 58.5377 23.224ZM69.1305 12.496C69.9225 12.496 70.6185 12.352 71.2185 12.16V9.256C70.6665 9.064 70.1145 8.896 69.0825 8.896C68.0505 8.896 67.6185 9.016 67.0905 9.256V12.16C67.6665 12.352 68.3145 12.496 69.1305 12.496ZM69.1305 28C69.9225 28 70.6185 27.88 71.2185 27.664V14.272C70.6665 14.08 70.1145 13.888 69.0825 13.888C68.0745 13.888 67.6185 14.032 67.0905 14.272V27.664C67.6665 27.88 68.3145 28 69.1305 28ZM80.4126 28.312C83.9646 28.312 86.7246 26.704 86.7246 23.68C86.7246 20.92 84.6606 20.056 82.4766 19.648L80.2686 19.264C78.6606 19 77.7966 18.664 77.7966 17.776C77.7966 16.768 78.8046 16.312 80.4126 16.312C81.6846 16.312 82.9806 16.768 82.9806 17.872C83.4366 18.064 84.0606 18.136 84.6366 18.136C85.3806 18.136 85.9326 18.064 86.3886 17.896C86.4606 15.112 83.7966 13.576 80.2686 13.576C76.7166 13.576 74.1966 15.28 74.1966 18.208C74.1966 21.184 76.4766 21.976 78.9006 22.408L80.5326 22.696C81.7326 22.912 82.7886 23.152 82.7886 24.04C82.7886 24.88 82.0686 25.552 80.2686 25.552C77.8926 25.552 77.4126 24.544 77.4366 24.04C77.0286 23.896 76.3326 23.776 75.7086 23.776C75.1086 23.776 74.4846 23.872 74.0766 24.016C74.0286 27.016 76.9566 28.312 80.4126 28.312ZM95.8118 28.288C99.4358 28.288 101.908 26.176 102.1 22.84C101.74 22.696 101.26 22.576 100.372 22.576C99.6758 22.576 99.0758 22.624 98.5238 22.84C98.4038 23.8 97.6838 25 95.8838 25C93.8438 25 92.7158 23.488 92.7158 20.896C92.7158 18.304 93.8918 16.84 95.8598 16.84C97.4678 16.84 98.2598 17.896 98.4038 18.784C98.8838 18.976 99.4598 19.072 100.228 19.072C101.092 19.072 101.596 18.928 101.98 18.808C101.956 15.904 99.5798 13.6 95.7878 13.6C91.4678 13.6 88.8518 16.408 88.8518 20.92C88.8518 25.528 91.5398 28.288 95.8118 28.288ZM111.292 28.288C115.66 28.288 118.252 25.576 118.252 20.944C118.252 16.336 115.66 13.624 111.292 13.624C106.9 13.624 104.308 16.336 104.308 20.944C104.308 25.576 106.9 28.288 111.292 28.288ZM111.388 25.192C109.276 25.192 108.028 23.656 108.028 20.944C108.028 18.256 109.276 16.72 111.388 16.72C113.404 16.72 114.58 18.256 114.58 20.944C114.58 23.656 113.404 25.192 111.388 25.192ZM130.257 13.744C129.825 13.648 129.489 13.576 129.009 13.576C126.969 13.576 125.529 14.824 124.857 16.576H124.833V14.2C124.305 14.008 123.777 13.864 123.033 13.864C122.049 13.864 121.617 14.008 121.113 14.2V27.664C121.737 27.88 122.409 28 123.153 28C124.017 28 124.713 27.856 125.241 27.664V20.92C125.241 18.256 126.969 17.248 128.769 17.248C129.225 17.248 129.681 17.296 130.257 17.416C130.497 16.912 130.617 16.264 130.617 15.472C130.617 14.896 130.521 14.224 130.257 13.744ZM143.473 8.896C142.681 8.896 142.009 8.992 141.409 9.16V15.016C140.521 14.104 139.321 13.648 137.857 13.648C134.065 13.648 131.401 16.288 131.401 21.136C131.401 25.936 134.305 28.24 137.521 28.24C139.441 28.24 140.857 27.544 141.697 26.344V27.736C142.201 27.952 142.801 28.072 143.737 28.072C144.649 28.072 144.985 27.952 145.513 27.736V9.16C144.937 8.992 144.289 8.896 143.473 8.896ZM138.385 25.12C136.609 25.12 135.289 23.944 135.289 21.04C135.289 18.112 136.513 16.816 138.505 16.816C140.377 16.816 141.769 17.968 141.769 20.776C141.769 23.464 140.545 25.12 138.385 25.12Z" fill="white"/>
</svg>
