<svg width="40" height="40" viewBox="0 0 40 40" fill="none" xmlns="http://www.w3.org/2000/svg">
<circle cx="20" cy="20" r="19.2688" stroke="#FEFDEB" stroke-width="1.4624"/>
<path opacity="0.4" d="M17.7738 21.6209C21.4349 23.2743 24.5054 22.1721 26.4344 21.4634C28.9386 20.5433 30.2698 18.4716 32.4968 18.4716C35.1344 18.4716 36.276 19.9274 36.276 22.0146C36.276 24.1018 32.9692 26.0693 28.9145 26.0693C24.414 26.0693 20.372 23.235 17.7738 21.6209Z" fill="#9EE1FE"/>
<path opacity="0.4" d="M16.0244 30.1343C18.9243 32.2172 22.4467 31.4974 25.3894 31.9501C27.115 32.2156 27.4946 33.1873 27.1517 33.9274C26.8089 34.6674 24.1425 35.3859 21.7072 34.2578C19.0042 33.0056 17.7115 31.9104 16.0244 30.1343Z" fill="#9EE1FE"/>
<path opacity="0.4" d="M18.4825 24.8872C14.9757 24.2162 12.5382 25.4974 9.5463 26.6194C7.91161 27.2324 5.17664 26.0965 5.17664 25.2809C5.17664 23.1945 7.29541 22.2891 9.97933 22.2891C12.9583 22.2891 16.2052 23.9848 18.4825 24.8872Z" fill="#9EE1FE"/>
<path fill-rule="evenodd" clip-rule="evenodd" d="M21.6093 35.3431C26.6787 34.6161 26.016 34.8386 23.8822 34.4032C20.7374 33.7615 19.1195 32.9012 16.6329 30.5309C14.9374 28.9147 13.6642 27.818 12.8539 27.2759C8.52452 24.3796 5.73079 27.741 9.56493 31.2333C12.7019 34.0906 17.3495 35.6764 21.6093 35.3431ZM27.1401 30.8112C31.5258 30.4251 35.309 27.349 36.0959 23.5295C36.5945 21.1091 36.0959 22.263 35.4853 23.1442C33.3137 26.2785 28.3876 26.962 23.3482 24.8284C21.7038 24.1321 20.3755 23.3721 18.0983 21.8244C17.9258 21.7072 17.62 21.5193 17.4188 21.4069C17.2176 21.2944 16.6218 20.9091 16.0948 20.5507C12.1376 17.8592 9.85744 16.7426 7.80212 16.49C3.98735 16.0211 2.78407 20.3175 5.27748 25.5043C5.56524 26.0103 5.36718 25.6059 5.41403 25.1992C5.78274 21.9979 9.3164 22.0709 13.3596 24.8481C13.5704 24.9929 14.0643 25.3466 14.4572 25.6341C19.598 29.3958 21.4864 30.3373 24.7466 30.7636C25.2277 30.8265 26.6459 30.8547 27.1401 30.8112Z" fill="#FEFDEB"/>
</svg>
