<svg width="80" height="80" viewBox="0 0 80 80" fill="none" xmlns="http://www.w3.org/2000/svg">
<mask id="path-1-inside-1_320_33" fill="white">
<path d="M40.0423 16.088C40.7438 16.0293 41.453 16 42.1696 16C56.3075 16 67.7778 27.6458 67.7778 42C67.7778 56.3542 56.3075 68 42.1696 68C36.7446 67.9998 31.4596 66.2511 27.0761 63.0059C22.6925 59.7606 19.4368 55.1864 17.7778 49.9422"/>
</mask>
<path d="M39.7922 13.0985C38.1411 13.2366 36.9146 14.687 37.0527 16.3381C37.1908 17.9892 38.6413 19.2157 40.2923 19.0776L39.7922 13.0985ZM42.1696 68L42.1695 71H42.1696V68ZM20.6381 49.0374C20.1384 47.4577 18.4527 46.5822 16.873 47.0819C15.2933 47.5816 14.4178 49.2673 14.9175 50.847L20.6381 49.0374ZM40.2923 19.0776C40.9093 19.026 41.5349 19 42.1696 19V13C41.371 13 40.5784 13.0327 39.7922 13.0985L40.2923 19.0776ZM42.1696 19C54.6079 19 64.7778 29.2596 64.7778 42H70.7778C70.7778 26.0321 58.0071 13 42.1696 13V19ZM64.7778 42C64.7778 54.7404 54.6079 65 42.1696 65V71C58.0071 71 70.7778 57.9679 70.7778 42H64.7778ZM42.1698 65C37.3911 64.9998 32.731 63.4597 28.8611 60.5947L25.291 65.417C30.1881 69.0424 36.098 70.9997 42.1695 71L42.1698 65ZM28.8611 60.5947C24.9904 57.7292 22.1081 53.6842 20.6381 49.0374L14.9175 50.847C16.7655 56.6886 20.3947 61.7921 25.291 65.417L28.8611 60.5947Z" fill="white" mask="url(#path-1-inside-1_320_33)"/>
<path d="M39.7778 12C24.3132 12 11.7779 24.5008 11.7779 39.9226C11.772 43.8551 12.602 47.7441 14.2131 51.3333L39.7778 39.9226V12Z" stroke="white" stroke-width="3" stroke-linecap="round" stroke-linejoin="round"/>
</svg>
