<svg width="80" height="80" viewBox="0 0 80 80" fill="none" xmlns="http://www.w3.org/2000/svg">
<path d="M18.1667 10C18.1667 9.17157 17.4951 8.5 16.6667 8.5C15.8382 8.5 15.1667 9.17157 15.1667 10V25.1667H10C9.17157 25.1667 8.5 25.8382 8.5 26.6667V53.3333C8.5 54.1618 9.17157 54.8333 10 54.8333H15.1667V71.6667C15.1667 72.4951 15.8382 73.1667 16.6667 73.1667C17.4951 73.1667 18.1667 72.4951 18.1667 71.6667V54.8333H23.3333C24.1618 54.8333 24.8333 54.1618 24.8333 53.3333V26.6667C24.8333 25.8382 24.1618 25.1667 23.3333 25.1667H18.1667V10Z" stroke="white" stroke-width="3" stroke-linecap="round" stroke-linejoin="round"/>
<path d="M38.4999 76.6667C38.4999 77.4951 39.1715 78.1667 39.9999 78.1667C40.8283 78.1667 41.4999 77.4951 41.4999 76.6667V71.5H46.6666C47.495 71.5 48.1666 70.8284 48.1666 70V40C48.1666 39.1716 47.495 38.5 46.6666 38.5H41.4999V15C41.4999 14.1716 40.8283 13.5 39.9999 13.5C39.1715 13.5 38.4999 14.1716 38.4999 15V38.5H33.3333C32.5048 38.5 31.8333 39.1716 31.8333 40V70C31.8333 70.8284 32.5048 71.5 33.3333 71.5H38.4999V76.6667Z" stroke="white" stroke-width="3" stroke-linecap="round" stroke-linejoin="round"/>
<path d="M64.8334 6.66699C64.8334 5.83857 64.1618 5.16699 63.3334 5.16699C62.505 5.16699 61.8334 5.83857 61.8334 6.66699V15.167H56.6667C55.8383 15.167 55.1667 15.8386 55.1667 16.667V60.0003C55.1667 60.8288 55.8383 61.5003 56.6667 61.5003H61.8334V70.0003C61.8334 70.8288 62.505 71.5003 63.3334 71.5003C64.1618 71.5003 64.8334 70.8288 64.8334 70.0003V61.5003H70.0001C70.8285 61.5003 71.5001 60.8288 71.5001 60.0003V16.667C71.5001 15.8386 70.8285 15.167 70.0001 15.167H64.8334V6.66699Z" stroke="white" stroke-width="3" stroke-linecap="round" stroke-linejoin="round"/>
</svg>
