<svg width="80" height="80" viewBox="0 0 80 80" fill="none" xmlns="http://www.w3.org/2000/svg">
<path d="M68.75 15V47.5C68.75 48.4946 68.3549 49.4484 67.6516 50.1516C66.9484 50.8549 65.9946 51.25 65 51.25H28L33.375 56.625C33.4922 56.7386 33.5854 56.8746 33.649 57.0249C33.7126 57.1752 33.7454 57.3368 33.7454 57.5C33.7454 57.6632 33.7126 57.8248 33.649 57.9751C33.5854 58.1254 33.4922 58.2614 33.375 58.375C33.2614 58.4922 33.1254 58.5853 32.9751 58.649C32.8248 58.7126 32.6632 58.7454 32.5 58.7454C32.3368 58.7454 32.1752 58.7126 32.0249 58.649C31.8746 58.5853 31.7386 58.4922 31.625 58.375L24.125 50.875C24.0078 50.7614 23.9146 50.6254 23.851 50.4751C23.7874 50.3248 23.7546 50.1632 23.7546 50C23.7546 49.8368 23.7874 49.6752 23.851 49.5249C23.9146 49.3746 24.0078 49.2386 24.125 49.125L31.625 41.625C31.8657 41.4445 32.1635 41.3568 32.4636 41.3781C32.7637 41.3995 33.0461 41.5284 33.2589 41.7411C33.4716 41.9539 33.6005 42.2363 33.6219 42.5364C33.6432 42.8365 33.5555 43.1343 33.375 43.375L28.0312 48.75H65C65.3315 48.75 65.6495 48.6183 65.8839 48.3839C66.1183 48.1495 66.25 47.8315 66.25 47.5V15C66.25 14.6685 66.1183 14.3505 65.8839 14.1161C65.6495 13.8817 65.3315 13.75 65 13.75H30C29.6685 13.75 29.3505 13.8817 29.1161 14.1161C28.8817 14.3505 28.75 14.6685 28.75 15V17.5C28.75 17.8315 28.6183 18.1495 28.3839 18.3839C28.1495 18.6183 27.8315 18.75 27.5 18.75C27.1685 18.75 26.8505 18.6183 26.6161 18.3839C26.3817 18.1495 26.25 17.8315 26.25 17.5V15C26.25 14.0054 26.6451 13.0516 27.3483 12.3483C28.0516 11.6451 29.0054 11.25 30 11.25H65C65.9946 11.25 66.9484 11.6451 67.6516 12.3483C68.3549 13.0516 68.75 14.0054 68.75 15ZM52.5 61.25C52.1685 61.25 51.8505 61.3817 51.6161 61.6161C51.3817 61.8505 51.25 62.1685 51.25 62.5V65C51.25 65.3315 51.1183 65.6495 50.8839 65.8839C50.6495 66.1183 50.3315 66.25 50 66.25H15C14.6685 66.25 14.3505 66.1183 14.1161 65.8839C13.8817 65.6495 13.75 65.3315 13.75 65V32.5C13.75 32.1685 13.8817 31.8505 14.1161 31.6161C14.3505 31.3817 14.6685 31.25 15 31.25H51.9688L46.625 36.625C46.5078 36.7386 46.4147 36.8746 46.351 37.0249C46.2874 37.1752 46.2546 37.3368 46.2546 37.5C46.2546 37.6632 46.2874 37.8248 46.351 37.9751C46.4147 38.1254 46.5078 38.2614 46.625 38.375C46.7386 38.4922 46.8746 38.5854 47.0249 38.649C47.1752 38.7126 47.3368 38.7454 47.5 38.7454C47.6632 38.7454 47.8248 38.7126 47.9751 38.649C48.1254 38.5854 48.2614 38.4922 48.375 38.375L55.875 30.875C55.9922 30.7614 56.0853 30.6254 56.149 30.4751C56.2126 30.3248 56.2454 30.1632 56.2454 30C56.2454 29.8368 56.2126 29.6752 56.149 29.5249C56.0853 29.3746 55.9922 29.2386 55.875 29.125L48.375 21.625C48.1343 21.4445 47.8365 21.3568 47.5364 21.3781C47.2363 21.3995 46.9539 21.5284 46.7411 21.7411C46.5284 21.9539 46.3995 22.2363 46.3781 22.5364C46.3568 22.8365 46.4445 23.1343 46.625 23.375L52 28.75H15C14.0054 28.75 13.0516 29.1451 12.3483 29.8483C11.6451 30.5516 11.25 31.5054 11.25 32.5V65C11.25 65.9946 11.6451 66.9484 12.3483 67.6516C13.0516 68.3549 14.0054 68.75 15 68.75H50C50.9946 68.75 51.9484 68.3549 52.6516 67.6516C53.3549 66.9484 53.75 65.9946 53.75 65V62.5C53.75 62.1685 53.6183 61.8505 53.3839 61.6161C53.1495 61.3817 52.8315 61.25 52.5 61.25Z" fill="white"/>
</svg>
