<svg width="120" height="120" viewBox="0 0 120 120" fill="none" xmlns="http://www.w3.org/2000/svg">
<path fill-rule="evenodd" clip-rule="evenodd" d="M66.4985 14.5339C56.5056 15.8159 48.2116 19.5439 44.9102 24.2375C43.4852 26.2634 43.4842 26.2695 43.4842 32.8531C43.4842 38.6168 43.5869 39.5061 44.3046 39.9603C45.4722 40.6995 46.7088 39.7995 46.9999 37.999L47.2342 36.5478L49.7683 38.1504C58.8096 43.8682 76.9136 45.6082 90.7324 42.0875C95.02 40.9953 99.0752 39.2787 101.202 37.6564C102.036 37.0203 102.838 36.5 102.984 36.5C103.13 36.5 103.25 40.5181 103.25 45.4296C103.25 52.2879 103.093 54.6621 102.574 55.6653C100.717 59.2564 93.1071 62.6356 82.6727 64.5012C80.3078 64.9245 79.2892 66.0467 80.1142 67.3203C81.4802 69.4296 94.0052 66.5103 100.583 62.5493L103.25 60.9434V69.8773C103.25 77.9867 103.164 78.9509 102.314 80.3248C100.008 84.0565 92.7081 87.1812 83.1564 88.5261C79.0577 89.1031 78.8749 89.1936 78.8749 90.6518C78.8749 92.6272 80.1503 92.8367 86.0477 91.8284C96.498 90.042 103.623 86.3042 106.021 81.3509C106.977 79.3751 107 78.7353 107 53.375C107 27.8651 106.983 27.3856 106.003 25.362C102.128 17.3567 83.7522 12.32 66.4985 14.5339ZM84.033 18.4273C95.0111 20.082 103.25 24.6148 103.25 29C103.25 33.3851 95.0111 37.9179 84.033 39.5726C72.2219 41.3534 58.2461 39.2482 51.3794 34.6545C45.5922 30.7831 45.5922 27.2168 51.3794 23.3454C58.2349 18.7592 72.2411 16.6493 84.033 18.4273ZM38.7967 44.6946C25.8241 47.5554 16.5269 56.9403 13.9197 69.8065C11.8497 80.0215 15.1619 90.8042 22.6788 98.3211C26.3917 102.034 30.4408 104.521 35.5155 106.207C38.7728 107.29 40.0352 107.453 45.1249 107.453C50.2146 107.453 51.4769 107.29 54.7342 106.207C59.8361 104.512 63.9199 102.014 67.592 98.3421C78.9175 87.0167 80.0402 69.245 70.2461 56.3206C63.2247 47.0553 50.0983 42.2028 38.7967 44.6946ZM51.8767 48.6757C57.1492 50.0243 60.7656 52.1131 64.855 56.1715C76.0267 67.2593 76.0267 84.4334 64.855 95.6051C53.6833 106.777 36.5092 106.777 25.4214 95.6051C21.363 91.5157 19.2742 87.8993 17.9256 82.6268C16.2344 76.0132 17.1124 68.8221 20.3711 62.6028C22.3652 58.7965 28.0497 53.1134 31.8602 51.117C38.0786 47.8592 45.2589 46.9836 51.8767 48.6757ZM36.6874 61.2012C32.4335 63.679 28.7978 65.9375 28.6085 66.2201C28.1589 66.8914 28.1589 84.8586 28.6085 85.5303C29.0688 86.2179 44.4292 95.0937 45.1595 95.0937C45.8936 95.0937 61.1833 86.2268 61.6413 85.5359C62.0908 84.8567 62.0908 66.8946 61.6413 66.2079C61.1603 65.4734 45.7966 56.6515 45.0396 56.6759C44.6997 56.6871 40.9413 58.7234 36.6874 61.2012ZM50.9177 64.0132C53.8872 65.7396 56.2221 67.3053 56.1063 67.4928C55.99 67.6807 53.4728 69.2253 50.5117 70.9254L45.1277 74.0168L40.0872 71.1176C37.315 69.5229 34.7805 67.9798 34.4547 67.6882C33.9981 67.2786 35.1203 66.4423 39.3766 64.0212C42.4094 62.2962 45.0316 60.8825 45.2046 60.8796C45.3771 60.8773 47.9481 62.2873 50.9177 64.0132ZM43.1458 83.5446L43.2761 89.9L37.7552 86.7331L32.2342 83.5662L32.1039 77.1509L31.9736 70.7351L37.4946 73.9625L43.0155 77.1893L43.1458 83.5446ZM58.0778 83.1472C57.9672 83.4359 55.9038 84.8032 53.493 86.1856C51.0817 87.5679 48.6283 89.0056 48.041 89.3811L46.9727 90.0631L47.1035 83.6243L47.2342 77.1851L52.6249 74.0586L58.0155 70.9315L58.1472 76.7768C58.2199 79.992 58.1885 82.8584 58.0778 83.1472Z" fill="white"/>
</svg>
