<svg width="79" height="26" viewBox="0 0 79 26" fill="none" xmlns="http://www.w3.org/2000/svg">
<path d="M23.5626 0.95991C22.5194 0.95991 21.7831 1.17467 21.0775 1.42012L18.6537 13.1094L15.0948 1.32807C14.4198 1.14399 13.7755 1.02127 13.1005 1.02127C12.4256 1.02127 11.7506 1.14399 11.1063 1.32807L7.85419 12.9866L5.33839 1.4508C4.57138 1.17467 3.80437 0.95991 2.42375 0.95991C1.1045 0.95991 0.613609 1.14399 0 1.4508L4.81683 18.6932C5.61452 18.908 6.38153 19.0307 7.14854 19.0307C7.88487 19.0307 8.65188 18.908 9.44957 18.6932L12.7324 7.89369L16.1379 18.6012C16.8742 18.8159 17.6106 19 18.623 19C19.6355 19 20.3718 18.8159 21.1081 18.6012L25.8329 1.42012C25.2807 1.14399 24.8205 0.95991 23.5626 0.95991ZM39.0193 0.775826C38.467 0.653104 38.0375 0.561064 37.4239 0.561064C34.8161 0.561064 32.9752 2.15645 32.1162 4.39612H32.0855V1.35875C31.4105 1.11331 30.7356 0.929228 29.7845 0.929228C28.5266 0.929228 27.9743 1.11331 27.33 1.35875V18.5705C28.1277 18.8466 28.9868 19 29.9379 19C31.0424 19 31.9321 18.8159 32.6071 18.5705V9.94927C32.6071 6.54375 34.8161 5.25517 37.1171 5.25517C37.7 5.25517 38.2829 5.31653 39.0193 5.46993C39.3261 4.82564 39.4795 3.99727 39.4795 2.98482C39.4795 2.24849 39.3568 1.38944 39.0193 0.775826ZM57.7176 16.3922C57.3801 16.4535 57.1653 16.4842 56.8892 16.4842C56.2142 16.4842 55.9994 16.1774 55.9994 15.0422C55.9994 12.8332 56.0301 9.51975 56.0301 7.74028C56.0301 4.97904 55.2938 3.50639 54.2507 2.52461C52.9621 1.29739 50.8451 0.591744 48.0225 0.591744C42.8682 0.591744 40.4138 2.92346 40.4138 5.80742C40.4138 6.02218 40.4445 6.32898 40.5058 6.54375C40.9047 6.69715 41.641 6.88123 42.5614 6.88123C43.3591 6.88123 44.1875 6.75851 44.617 6.54375V6.39034C44.617 5.07109 45.6601 4.21203 47.7464 4.21203C48.7589 4.21203 49.8327 4.4268 50.5077 5.00972C50.9065 5.34721 51.1213 5.80742 51.1213 6.51307C51.1213 7.89369 50.3236 8.20049 48.4827 8.38457L45.6295 8.59934C42.0399 8.90614 39.6468 10.2868 39.6468 14.0605C39.6468 17.4046 41.8865 19.3375 45.6601 19.3682C48.5134 19.3988 50.3236 18.1409 51.336 16.699H51.3667C51.3667 17.2512 51.4281 17.5273 51.5508 17.8341C51.7349 18.6625 52.4405 19.3068 54.3734 19.3068C55.846 19.3068 56.9812 19.0614 57.7176 18.7546C57.8403 18.4171 57.9016 18.0182 57.9016 17.6194C57.9016 17.0978 57.8403 16.7296 57.7176 16.3922ZM46.8874 15.6252C45.3533 15.6252 44.1875 14.9195 44.1875 13.4775C44.1875 12.1276 45.1079 11.514 47.2248 11.3606L48.8816 11.2685C49.6179 11.2072 50.3849 11.1458 51.0906 10.931V11.3606C51.0906 13.8457 49.5259 15.6252 46.8874 15.6252ZM70.2479 0.653104C67.7321 0.653104 65.8606 1.63488 64.8174 3.23026V1.38944C64.1731 1.17467 63.5595 0.95991 62.3937 0.95991C61.2278 0.95991 60.6756 1.17467 60.062 1.38944V24.8293C60.8597 25.1054 61.6573 25.2588 62.7312 25.2588C63.7436 25.2588 64.572 25.1054 65.339 24.8293V17.6194C66.4742 18.7239 68.0082 19.3068 69.8183 19.3068C74.6659 19.3068 78.0714 15.932 78.0714 9.73451C78.0714 3.59843 74.359 0.653104 70.2479 0.653104ZM69.0207 15.257C66.5969 15.257 64.8174 13.7843 64.8174 10.1947C64.8174 6.75851 66.3821 4.64156 69.1434 4.64156C71.4444 4.64156 73.1011 6.1449 73.1011 9.85723C73.1011 13.6002 71.5364 15.257 69.0207 15.257Z" fill="#FEFDEB"/>
</svg>
