<svg width="131" height="40" viewBox="0 0 131 40" fill="none" xmlns="http://www.w3.org/2000/svg">
<circle cx="20" cy="20" r="19.2688" stroke="#FEFDEB" stroke-width="1.4624"/>
<path opacity="0.4" d="M17.7737 21.6209C21.4347 23.2743 24.5053 22.1721 26.4343 21.4634C28.9385 20.5433 30.2697 18.4716 32.4967 18.4716C35.1343 18.4716 36.2759 19.9274 36.2759 22.0146C36.2759 24.1018 32.9691 26.0693 28.9144 26.0693C24.4139 26.0693 20.3719 23.235 17.7737 21.6209Z" fill="#9EE1FE"/>
<path opacity="0.4" d="M16.0243 30.1343C18.9242 32.2172 22.4466 31.4974 25.3893 31.9501C27.1149 32.2156 27.4944 33.1873 27.1516 33.9274C26.8088 34.6674 24.1424 35.3859 21.7071 34.2578C19.004 33.0056 17.7113 31.9104 16.0243 30.1343Z" fill="#9EE1FE"/>
<path opacity="0.4" d="M18.4824 24.8872C14.9755 24.2162 12.538 25.4974 9.54618 26.6194C7.91149 27.2324 5.17651 26.0965 5.17651 25.2809C5.17651 23.1945 7.29529 22.2891 9.97921 22.2891C12.9582 22.2891 16.205 23.9848 18.4824 24.8872Z" fill="#9EE1FE"/>
<path fill-rule="evenodd" clip-rule="evenodd" d="M21.6091 35.3431C26.6785 34.6161 26.0159 34.8386 23.8821 34.4032C20.7373 33.7615 19.1193 32.9012 16.6328 30.5309C14.9373 28.9147 13.6641 27.818 12.8538 27.2759C8.52439 24.3796 5.73067 27.741 9.56481 31.2333C12.7017 34.0906 17.3493 35.6764 21.6091 35.3431ZM27.1399 30.8112C31.5256 30.4251 35.3089 27.349 36.0957 23.5295C36.5944 21.1091 36.0957 22.263 35.4852 23.1442C33.3135 26.2785 28.3875 26.962 23.3481 24.8284C21.7037 24.1321 20.3753 23.3721 18.0981 21.8244C17.9257 21.7072 17.6199 21.5193 17.4187 21.4069C17.2175 21.2944 16.6217 20.9091 16.0947 20.5507C12.1375 17.8592 9.85732 16.7426 7.80199 16.49C3.98723 16.0211 2.78395 20.3175 5.27736 25.5043C5.56512 26.0103 5.36706 25.6059 5.41391 25.1992C5.78262 21.9979 9.31628 22.0709 13.3595 24.8481C13.5703 24.9929 14.0642 25.3466 14.457 25.6341C19.5979 29.3958 21.4863 30.3373 24.7464 30.7636C25.2276 30.8265 26.6458 30.8547 27.1399 30.8112Z" fill="#FEFDEB"/>
<path d="M74.0626 12.2099C73.0194 12.2099 72.2831 12.4247 71.5775 12.6701L69.1537 24.3594L65.5948 12.5781C64.9198 12.394 64.2755 12.2713 63.6005 12.2713C62.9256 12.2713 62.2506 12.394 61.6063 12.5781L58.3542 24.2366L55.8384 12.7008C55.0714 12.4247 54.3044 12.2099 52.9238 12.2099C51.6045 12.2099 51.1136 12.394 50.5 12.7008L55.3168 29.9432C56.1145 30.158 56.8815 30.2807 57.6485 30.2807C58.3849 30.2807 59.1519 30.158 59.9496 29.9432L63.2324 19.1437L66.6379 29.8512C67.3742 30.0659 68.1106 30.25 69.123 30.25C70.1355 30.25 70.8718 30.0659 71.6081 29.8512L76.3329 12.6701C75.7807 12.394 75.3205 12.2099 74.0626 12.2099ZM89.5193 12.0258C88.967 11.9031 88.5375 11.8111 87.9239 11.8111C85.3161 11.8111 83.4752 13.4064 82.6162 15.6461H82.5855V12.6088C81.9105 12.3633 81.2356 12.1792 80.2845 12.1792C79.0266 12.1792 78.4743 12.3633 77.83 12.6088V29.8205C78.6277 30.0966 79.4868 30.25 80.4379 30.25C81.5424 30.25 82.4321 30.0659 83.1071 29.8205V21.1993C83.1071 17.7937 85.3161 16.5052 87.6171 16.5052C88.2 16.5052 88.7829 16.5665 89.5193 16.7199C89.8261 16.0756 89.9795 15.2473 89.9795 14.2348C89.9795 13.4985 89.8568 12.6394 89.5193 12.0258ZM108.218 27.6422C107.88 27.7035 107.665 27.7342 107.389 27.7342C106.714 27.7342 106.499 27.4274 106.499 26.2922C106.499 24.0832 106.53 20.7697 106.53 18.9903C106.53 16.229 105.794 14.7564 104.751 13.7746C103.462 12.5474 101.345 11.8417 98.5225 11.8417C93.3682 11.8417 90.9138 14.1735 90.9138 17.0574C90.9138 17.2722 90.9445 17.579 91.0058 17.7937C91.4047 17.9471 92.141 18.1312 93.0614 18.1312C93.8591 18.1312 94.6875 18.0085 95.117 17.7937V17.6403C95.117 16.3211 96.1601 15.462 98.2464 15.462C99.2589 15.462 100.333 15.6768 101.008 16.2597C101.406 16.5972 101.621 17.0574 101.621 17.7631C101.621 19.1437 100.824 19.4505 98.9827 19.6346L96.1295 19.8493C92.5399 20.1561 90.1468 21.5368 90.1468 25.3105C90.1468 28.6546 92.3865 30.5875 96.1601 30.6182C99.0134 30.6488 100.824 29.3909 101.836 27.949H101.867C101.867 28.5012 101.928 28.7773 102.051 29.0841C102.235 29.9125 102.941 30.5568 104.873 30.5568C106.346 30.5568 107.481 30.3114 108.218 30.0046C108.34 29.6671 108.402 29.2682 108.402 28.8694C108.402 28.3478 108.34 27.9796 108.218 27.6422ZM97.3874 26.8752C95.8533 26.8752 94.6875 26.1695 94.6875 24.7275C94.6875 23.3776 95.6079 22.764 97.7248 22.6106L99.3816 22.5185C100.118 22.4572 100.885 22.3958 101.591 22.181V22.6106C101.591 25.0957 100.026 26.8752 97.3874 26.8752ZM120.748 11.9031C118.232 11.9031 116.361 12.8849 115.317 14.4803V12.6394C114.673 12.4247 114.06 12.2099 112.894 12.2099C111.728 12.2099 111.176 12.4247 110.562 12.6394V36.0793C111.36 36.3554 112.157 36.5088 113.231 36.5088C114.244 36.5088 115.072 36.3554 115.839 36.0793V28.8694C116.974 29.9739 118.508 30.5568 120.318 30.5568C125.166 30.5568 128.571 27.182 128.571 20.9845C128.571 14.8484 124.859 11.9031 120.748 11.9031ZM119.521 26.507C117.097 26.507 115.317 25.0343 115.317 21.4447C115.317 18.0085 116.882 15.8916 119.643 15.8916C121.944 15.8916 123.601 17.3949 123.601 21.1072C123.601 24.8502 122.036 26.507 119.521 26.507Z" fill="#FEFDEB"/>
</svg>
