<svg width="79" height="26" viewBox="0 0 79 26" fill="none" xmlns="http://www.w3.org/2000/svg">
<path d="M23.9505 0.95991C22.9074 0.95991 22.1711 1.17467 21.4654 1.42012L19.0417 13.1094L15.4827 1.32807C14.8078 1.14399 14.1635 1.02127 13.4885 1.02127C12.8135 1.02127 12.1386 1.14399 11.4943 1.32807L8.24216 12.9866L5.72637 1.4508C4.95936 1.17467 4.19235 0.95991 2.81173 0.95991C1.49247 0.95991 1.00158 1.14399 0.387974 1.4508L5.2048 18.6932C6.00249 18.908 6.7695 19.0307 7.53651 19.0307C8.27284 19.0307 9.03985 18.908 9.83755 18.6932L13.1204 7.89369L16.5259 18.6012C17.2622 18.8159 17.9985 19 19.011 19C20.0234 19 20.7598 18.8159 21.4961 18.6012L26.2209 1.42012C25.6686 1.14399 25.2084 0.95991 23.9505 0.95991ZM39.4072 0.775826C38.855 0.653104 38.4255 0.561064 37.8119 0.561064C35.204 0.561064 33.3632 2.15645 32.5041 4.39612H32.4735V1.35875C31.7985 1.11331 31.1235 0.929228 30.1724 0.929228C28.9145 0.929228 28.3623 1.11331 27.718 1.35875V18.5705C28.5157 18.8466 29.3747 19 30.3258 19C31.4303 19 32.3201 18.8159 32.995 18.5705V9.94927C32.995 6.54375 35.204 5.25517 37.5051 5.25517C38.088 5.25517 38.6709 5.31653 39.4072 5.46993C39.714 4.82564 39.8675 3.99727 39.8675 2.98482C39.8675 2.24849 39.7447 1.38944 39.4072 0.775826ZM58.1055 16.3922C57.768 16.4535 57.5533 16.4842 57.2772 16.4842C56.6022 16.4842 56.3874 16.1774 56.3874 15.0422C56.3874 12.8332 56.4181 9.51975 56.4181 7.74028C56.4181 4.97904 55.6818 3.50639 54.6386 2.52461C53.3501 1.29739 51.2331 0.591744 48.4105 0.591744C43.2562 0.591744 40.8018 2.92346 40.8018 5.80742C40.8018 6.02218 40.8324 6.32898 40.8938 6.54375C41.2927 6.69715 42.029 6.88123 42.9494 6.88123C43.7471 6.88123 44.5755 6.75851 45.005 6.54375V6.39034C45.005 5.07109 46.0481 4.21203 48.1344 4.21203C49.1468 4.21203 50.2207 4.4268 50.8956 5.00972C51.2945 5.34721 51.5092 5.80742 51.5092 6.51307C51.5092 7.89369 50.7115 8.20049 48.8707 8.38457L46.0174 8.59934C42.4278 8.90614 40.0348 10.2868 40.0348 14.0605C40.0348 17.4046 42.2744 19.3375 46.0481 19.3682C48.9014 19.3988 50.7115 18.1409 51.724 16.699H51.7547C51.7547 17.2512 51.816 17.5273 51.9388 17.8341C52.1228 18.6625 52.8285 19.3068 54.7614 19.3068C56.234 19.3068 57.3692 19.0614 58.1055 18.7546C58.2282 18.4171 58.2896 18.0182 58.2896 17.6194C58.2896 17.0978 58.2282 16.7296 58.1055 16.3922ZM47.2753 15.6252C45.7413 15.6252 44.5755 14.9195 44.5755 13.4775C44.5755 12.1276 45.4959 11.514 47.6128 11.3606L49.2696 11.2685C50.0059 11.2072 50.7729 11.1458 51.4786 10.931V11.3606C51.4786 13.8457 49.9139 15.6252 47.2753 15.6252ZM70.6358 0.653104C68.12 0.653104 66.2485 1.63488 65.2054 3.23026V1.38944C64.5611 1.17467 63.9475 0.95991 62.7817 0.95991C61.6158 0.95991 61.0635 1.17467 60.4499 1.38944V24.8293C61.2476 25.1054 62.0453 25.2588 63.1191 25.2588C64.1316 25.2588 64.96 25.1054 65.727 24.8293V17.6194C66.8622 18.7239 68.3962 19.3068 70.2063 19.3068C75.0538 19.3068 78.4594 15.932 78.4594 9.73451C78.4594 3.59843 74.747 0.653104 70.6358 0.653104ZM69.4086 15.257C66.9849 15.257 65.2054 13.7843 65.2054 10.1947C65.2054 6.75851 66.7701 4.64156 69.5313 4.64156C71.8324 4.64156 73.4891 6.1449 73.4891 9.85723C73.4891 13.6002 71.9244 15.257 69.4086 15.257Z" fill="#FEFDEB"/>
</svg>
